<svg xmlns="http://www.w3.org/2000/svg" xmlns:xlink="http://www.w3.org/1999/xlink" width="1920" zoomAndPan="magnify" viewBox="0 0 1440 809.999993" height="1080" preserveAspectRatio="xMidYMid meet" version="1.0"><defs><clipPath id="id1"><path d="M 435.070312 120.070312 L 1005.070312 120.070312 L 1005.070312 690.070312 L 435.070312 690.070312 Z M 435.070312 120.070312 " clip-rule="nonzero"/></clipPath><clipPath id="id2"><path d="M 564 280 L 877 280 L 877 508.304688 L 564 508.304688 Z M 564 280 " clip-rule="nonzero"/></clipPath><clipPath id="id3"><path d="M 557.417969 238.304688 L 882.917969 238.304688 L 882.917969 480 L 557.417969 480 Z M 557.417969 238.304688 " clip-rule="nonzero"/></clipPath></defs><g clip-path="url(#id1)"><path fill="#64b5a9" d="M 720.070312 148.570312 C 861.515625 148.570312 976.570312 263.625 976.570312 405.070312 C 976.570312 546.515625 861.515625 661.570312 720.070312 661.570312 C 578.625 661.570312 463.570312 546.515625 463.570312 405.070312 C 463.570312 263.625 578.625 148.570312 720.070312 148.570312 M 720.070312 120.070312 C 562.664062 120.070312 435.070312 247.664062 435.070312 405.070312 C 435.070312 562.476562 562.664062 690.070312 720.070312 690.070312 C 877.476562 690.070312 1005.070312 562.476562 1005.070312 405.070312 C 1005.070312 247.664062 877.476562 120.070312 720.070312 120.070312 Z M 720.070312 120.070312 " fill-opacity="1" fill-rule="nonzero"/></g><g clip-path="url(#id2)"><path fill="#62b6aa" d="M 720.558594 280.308594 L 564.167969 436.371094 L 564.171875 508.003906 L 564.445312 508.269531 L 720.5625 352.476562 L 876.21875 507.820312 L 876.21875 435.652344 L 720.5625 280.308594 " fill-opacity="1" fill-rule="nonzero"/></g><g clip-path="url(#id3)"><path fill="#ffffff" d="M 715.8125 240.316406 C 697.164062 258.933594 678.511719 277.550781 659.855469 296.160156 C 631.40625 324.558594 602.957031 352.949219 574.5 381.347656 C 570.695312 385.148438 566.882812 388.945312 563.074219 392.753906 C 560.734375 395.089844 557.46875 397.535156 557.46875 401.148438 C 557.46875 417.746094 557.46875 434.34375 557.46875 450.9375 L 557.46875 467.378906 C 557.46875 470.984375 556.875 474.957031 559.707031 477.746094 C 562.304688 480.308594 566.59375 480.335938 569.1875 477.746094 C 587.804688 459.164062 606.425781 440.578125 625.046875 422 C 653.449219 393.648438 681.847656 365.304688 710.253906 336.960938 C 715.261719 331.957031 720.285156 326.953125 725.296875 321.949219 L 715.8125 321.949219 C 734.507812 340.601562 753.195312 359.25 771.882812 377.902344 C 800.238281 406.207031 828.589844 434.503906 856.953125 462.800781 C 861.792969 467.628906 866.632812 472.460938 871.476562 477.296875 C 875.613281 481.425781 882.917969 478.402344 882.917969 472.566406 L 882.917969 401.53125 C 882.917969 397.796875 881.097656 395.804688 878.710938 393.4375 C 855.328125 370.09375 831.949219 346.761719 808.570312 323.429688 C 782.796875 297.707031 757.023438 271.984375 731.257812 246.261719 C 729.265625 244.28125 727.28125 242.296875 725.296875 240.316406 C 719.175781 234.207031 709.699219 243.675781 715.8125 249.78125 C 734.507812 268.433594 753.195312 287.082031 771.882812 305.734375 C 800.238281 334.03125 828.589844 362.335938 856.953125 390.632812 C 861.792969 395.460938 866.632812 400.300781 871.476562 405.128906 C 870.820312 403.550781 870.171875 401.976562 869.511719 400.398438 L 869.511719 472.566406 C 873.328125 470.988281 877.140625 469.414062 880.957031 467.835938 C 862.265625 449.183594 843.578125 430.53125 824.882812 411.878906 L 739.824219 326.988281 C 734.976562 322.15625 730.136719 317.320312 725.296875 312.492188 C 722.710938 309.910156 718.398438 309.910156 715.8125 312.492188 C 697.199219 331.074219 678.578125 349.652344 659.957031 368.234375 C 631.554688 396.578125 603.152344 424.925781 574.746094 453.273438 C 569.738281 458.277344 564.722656 463.28125 559.707031 468.285156 L 569.1875 468.285156 C 569.09375 468.195312 569.003906 468.105469 568.914062 468.015625 C 569.566406 469.59375 570.222656 471.167969 570.875 472.746094 L 570.875 401.113281 C 570.222656 402.691406 569.566406 404.273438 568.914062 405.84375 C 587.566406 387.234375 606.21875 368.617188 624.871094 350 C 653.320312 321.609375 681.773438 293.210938 710.222656 264.8125 C 715.25 259.800781 720.269531 254.792969 725.296875 249.78125 C 731.410156 243.671875 721.933594 234.207031 715.8125 240.316406 " fill-opacity="1" fill-rule="nonzero"/></g><path stroke-linecap="butt" transform="matrix(3.752345, -0.000000000000000015, 0.000000000000000015, 3.75, 663.784773, 496.608211)" fill="none" stroke-linejoin="miter" d="M 0.000102182 0.000310396 L 29.981353 0.000310396 " stroke="#ffffff" stroke-width="1" stroke-opacity="1" stroke-miterlimit="4"/><path stroke-linecap="butt" transform="matrix(3.742419, 0, 0, 3.75, 638.832166, 520.686138)" fill="none" stroke-linejoin="miter" d="M -0.0000360284 0.000363252 L 43.289556 0.000363252 " stroke="#ffffff" stroke-width="1" stroke-opacity="1" stroke-miterlimit="4"/><path stroke-linecap="butt" transform="matrix(3.756327, 0, 0, 3.75, 619.293551, 545.080889)" fill="none" stroke-linejoin="miter" d="M -0.000155023 0.000304713 L 53.710266 0.000304713 " stroke="#ffffff" stroke-width="1" stroke-opacity="1" stroke-miterlimit="4"/></svg>